{
	"patcher" : 	{
		"fileversion" : 1,
		"appversion" : 		{
			"major" : 9,
			"minor" : 0,
			"revision" : 9,
			"architecture" : "x64",
			"modernui" : 1
		}
,
		"classnamespace" : "box",
		"rect" : [ 33.0, 71.0, 641.0, 508.0 ],
		"openinpresentation" : 1,
		"gridonopen" : 2,
		"gridsize" : [ 8.0, 8.0 ],
		"gridsnaponopen" : 2,
		"objectsnaponopen" : 0,
		"enablehscroll" : 0,
		"enablevscroll" : 0,
		"integercoordinates" : 1,
		"boxes" : [ 			{
				"box" : 				{
					"id" : "obj-22",
					"maxclass" : "newobj",
					"numinlets" : 1,
					"numoutlets" : 2,
					"outlettype" : [ "bang", "int" ],
					"patching_rect" : [ 720.0, 80.0, 30.0, 22.0 ],
					"text" : "t b i"
				}

			}
, 			{
				"box" : 				{
					"id" : "obj-24",
					"maxclass" : "newobj",
					"numinlets" : 2,
					"numoutlets" : 2,
					"outlettype" : [ "", "" ],
					"patching_rect" : [ 520.0, 248.0, 60.0, 22.0 ],
					"text" : "zl.change"
				}

			}
, 			{
				"box" : 				{
					"id" : "obj-23",
					"maxclass" : "newobj",
					"numinlets" : 1,
					"numoutlets" : 1,
					"outlettype" : [ "" ],
					"patching_rect" : [ 632.0, 328.0, 124.0, 22.0 ],
					"text" : "prepend jit_gl_texture"
				}

			}
, 			{
				"box" : 				{
					"id" : "obj-122",
					"maxclass" : "newobj",
					"numinlets" : 1,
					"numoutlets" : 1,
					"outlettype" : [ "" ],
					"patching_rect" : [ 1192.0, 160.0, 54.0, 22.0 ],
					"text" : "deferlow"
				}

			}
, 			{
				"box" : 				{
					"id" : "obj-81",
					"maxclass" : "newobj",
					"numinlets" : 1,
					"numoutlets" : 1,
					"outlettype" : [ "" ],
					"patching_rect" : [ 1192.0, 88.0, 66.0, 22.0 ],
					"text" : "expr 1- $f1"
				}

			}
, 			{
				"box" : 				{
					"id" : "obj-82",
					"maxclass" : "message",
					"numinlets" : 2,
					"numoutlets" : 1,
					"outlettype" : [ "" ],
					"patching_rect" : [ 1192.0, 119.0, 57.0, 22.0 ],
					"text" : "active $1"
				}

			}
, 			{
				"box" : 				{
					"id" : "obj-20",
					"maxclass" : "newobj",
					"numinlets" : 1,
					"numoutlets" : 1,
					"outlettype" : [ "bang" ],
					"patching_rect" : [ 280.0, 128.0, 22.0, 22.0 ],
					"text" : "t b"
				}

			}
, 			{
				"box" : 				{
					"bgmode" : 0,
					"border" : 0,
					"clickthrough" : 0,
					"enablehscroll" : 0,
					"enablevscroll" : 0,
					"id" : "obj-84",
					"lockeddragscroll" : 0,
					"lockedsize" : 0,
					"maxclass" : "bpatcher",
					"name" : "PX._legend.maxpat",
					"numinlets" : 0,
					"numoutlets" : 0,
					"offset" : [ 0.0, 0.0 ],
					"patching_rect" : [ 8.0, 8.0, 351.0, 47.0 ],
					"viewvisibility" : 1
				}

			}
, 			{
				"box" : 				{
					"id" : "obj-18",
					"maxclass" : "newobj",
					"numinlets" : 2,
					"numoutlets" : 1,
					"outlettype" : [ "" ],
					"patching_rect" : [ 520.0, 392.0, 46.0, 22.0 ],
					"text" : "pack i i"
				}

			}
, 			{
				"box" : 				{
					"id" : "obj-16",
					"maxclass" : "newobj",
					"numinlets" : 1,
					"numoutlets" : 5,
					"outlettype" : [ "", "", "int", "int", "int" ],
					"patching_rect" : [ 520.0, 336.0, 84.0, 22.0 ],
					"text" : "unpack s s i i i"
				}

			}
, 			{
				"box" : 				{
					"id" : "obj-108",
					"maxclass" : "newobj",
					"numinlets" : 2,
					"numoutlets" : 2,
					"outlettype" : [ "bang", "" ],
					"patching_rect" : [ 1088.0, 40.0, 50.0, 22.0 ],
					"text" : "select 1"
				}

			}
, 			{
				"box" : 				{
					"id" : "obj-102",
					"maxclass" : "newobj",
					"numinlets" : 1,
					"numoutlets" : 1,
					"outlettype" : [ "bang" ],
					"patching_rect" : [ 1088.0, 80.0, 22.0, 22.0 ],
					"text" : "t b"
				}

			}
, 			{
				"box" : 				{
					"id" : "obj-101",
					"maxclass" : "newobj",
					"numinlets" : 1,
					"numoutlets" : 2,
					"outlettype" : [ "int", "int" ],
					"patching_rect" : [ 1024.0, 40.0, 30.0, 22.0 ],
					"text" : "t i i"
				}

			}
, 			{
				"box" : 				{
					"id" : "obj-100",
					"maxclass" : "newobj",
					"numinlets" : 2,
					"numoutlets" : 1,
					"outlettype" : [ "int" ],
					"patching_rect" : [ 1024.0, 80.0, 33.0, 22.0 ],
					"text" : "== 1"
				}

			}
, 			{
				"box" : 				{
					"id" : "obj-99",
					"maxclass" : "newobj",
					"numinlets" : 2,
					"numoutlets" : 1,
					"outlettype" : [ "int" ],
					"patching_rect" : [ 1024.0, 120.0, 30.0, 22.0 ],
					"text" : "+ 1"
				}

			}
, 			{
				"box" : 				{
					"id" : "obj-98",
					"maxclass" : "newobj",
					"numinlets" : 2,
					"numoutlets" : 2,
					"outlettype" : [ "", "" ],
					"patching_rect" : [ 1024.0, 160.0, 42.0, 22.0 ],
					"text" : "gate 2"
				}

			}
, 			{
				"box" : 				{
					"id" : "obj-8",
					"maxclass" : "message",
					"numinlets" : 2,
					"numoutlets" : 1,
					"outlettype" : [ "" ],
					"patching_rect" : [ 552.0, 104.0, 64.0, 22.0 ],
					"text" : "offset 0 $1"
				}

			}
, 			{
				"box" : 				{
					"id" : "obj-4",
					"maxclass" : "newobj",
					"numinlets" : 2,
					"numoutlets" : 1,
					"outlettype" : [ "int" ],
					"patching_rect" : [ 552.0, 64.0, 34.0, 22.0 ],
					"text" : "* -70"
				}

			}
, 			{
				"box" : 				{
					"id" : "obj-2",
					"maxclass" : "newobj",
					"numinlets" : 1,
					"numoutlets" : 1,
					"outlettype" : [ "" ],
					"patching_rect" : [ 552.0, 136.0, 147.0, 22.0 ],
					"text" : "prepend script send roTab"
				}

			}
, 			{
				"box" : 				{
					"id" : "obj-1",
					"maxclass" : "newobj",
					"numinlets" : 1,
					"numoutlets" : 2,
					"outlettype" : [ "", "" ],
					"patching_rect" : [ 552.0, 176.0, 67.0, 22.0 ],
					"save" : [ "#N", "thispatcher", ";", "#Q", "end", ";" ],
					"text" : "thispatcher"
				}

			}
, 			{
				"box" : 				{
					"bgmode" : 0,
					"border" : 0,
					"clickthrough" : 0,
					"embed" : 1,
					"enablehscroll" : 0,
					"enablevscroll" : 0,
					"id" : "obj-47",
					"lockeddragscroll" : 0,
					"lockedsize" : 0,
					"maxclass" : "bpatcher",
					"numinlets" : 2,
					"numoutlets" : 1,
					"offset" : [ 0.0, 0.0 ],
					"outlettype" : [ "" ],
					"patcher" : 					{
						"fileversion" : 1,
						"appversion" : 						{
							"major" : 9,
							"minor" : 0,
							"revision" : 9,
							"architecture" : "x64",
							"modernui" : 1
						}
,
						"classnamespace" : "box",
						"rect" : [ 33.0, 82.0, 567.0, 498.0 ],
						"openinpresentation" : 1,
						"gridonopen" : 2,
						"gridsize" : [ 8.0, 8.0 ],
						"gridsnaponopen" : 2,
						"objectsnaponopen" : 0,
						"integercoordinates" : 1,
						"boxes" : [ 							{
								"box" : 								{
									"id" : "obj-6",
									"maxclass" : "newobj",
									"numinlets" : 2,
									"numoutlets" : 1,
									"outlettype" : [ "int" ],
									"patching_rect" : [ 288.0, 328.0, 30.0, 22.0 ],
									"text" : "+ 1"
								}

							}
, 							{
								"box" : 								{
									"id" : "obj-5",
									"maxclass" : "newobj",
									"numinlets" : 3,
									"numoutlets" : 1,
									"outlettype" : [ "" ],
									"patching_rect" : [ 288.0, 376.0, 42.0, 22.0 ],
									"text" : "switch"
								}

							}
, 							{
								"box" : 								{
									"comment" : "",
									"id" : "obj-3",
									"index" : 2,
									"maxclass" : "inlet",
									"numinlets" : 0,
									"numoutlets" : 1,
									"outlettype" : [ "int" ],
									"patching_rect" : [ 360.0, 48.0, 30.0, 30.0 ],
									"varname" : "u165010545[1]"
								}

							}
, 							{
								"box" : 								{
									"id" : "obj-4",
									"maxclass" : "newobj",
									"numinlets" : 4,
									"numoutlets" : 1,
									"outlettype" : [ "" ],
									"patching_rect" : [ 408.0, 160.0, 55.0, 22.0 ],
									"text" : "pak f f f f"
								}

							}
, 							{
								"box" : 								{
									"id" : "obj-1",
									"maxclass" : "newobj",
									"numinlets" : 3,
									"numoutlets" : 1,
									"outlettype" : [ "" ],
									"patching_rect" : [ 88.0, 144.0, 48.0, 22.0 ],
									"text" : "pak f f f"
								}

							}
, 							{
								"box" : 								{
									"annotation_name" : "Rotate Z",
									"id" : "obj-25",
									"maxclass" : "live.numbox",
									"numinlets" : 1,
									"numoutlets" : 2,
									"outlettype" : [ "", "float" ],
									"parameter_enable" : 1,
									"patching_rect" : [ 160.0, 104.0, 44.0, 15.0 ],
									"presentation" : 1,
									"presentation_rect" : [ 87.0, 2.0, 41.0, 15.0 ],
									"saved_attribute_attributes" : 									{
										"valueof" : 										{
											"parameter_annotation_name" : "Rotate Z",
											"parameter_initial" : [ 0 ],
											"parameter_initial_enable" : 1,
											"parameter_longname" : "Rotate Z",
											"parameter_mmax" : 360.0,
											"parameter_mmin" : -360.0,
											"parameter_modmode" : 3,
											"parameter_shortname" : "Rotate Z",
											"parameter_steps" : 721,
											"parameter_type" : 0,
											"parameter_units" : "rz",
											"parameter_unitstyle" : 9
										}

									}
,
									"varname" : "live.numbox[12]"
								}

							}
, 							{
								"box" : 								{
									"annotation_name" : "Rotate Y",
									"id" : "obj-23",
									"maxclass" : "live.numbox",
									"numinlets" : 1,
									"numoutlets" : 2,
									"outlettype" : [ "", "float" ],
									"parameter_enable" : 1,
									"patching_rect" : [ 104.0, 104.0, 44.0, 15.0 ],
									"presentation" : 1,
									"presentation_rect" : [ 45.0, 2.0, 40.0, 15.0 ],
									"saved_attribute_attributes" : 									{
										"valueof" : 										{
											"parameter_annotation_name" : "Rotate Y",
											"parameter_initial" : [ 0 ],
											"parameter_initial_enable" : 1,
											"parameter_longname" : "Rotate Y",
											"parameter_mmax" : 360.0,
											"parameter_mmin" : -360.0,
											"parameter_modmode" : 3,
											"parameter_shortname" : "Rotate Y",
											"parameter_steps" : 721,
											"parameter_type" : 0,
											"parameter_units" : "ry",
											"parameter_unitstyle" : 9
										}

									}
,
									"varname" : "live.numbox[10]"
								}

							}
, 							{
								"box" : 								{
									"annotation_name" : "Rotate X",
									"id" : "obj-24",
									"maxclass" : "live.numbox",
									"numinlets" : 1,
									"numoutlets" : 2,
									"outlettype" : [ "", "float" ],
									"parameter_enable" : 1,
									"patching_rect" : [ 48.0, 104.0, 44.0, 15.0 ],
									"presentation" : 1,
									"presentation_rect" : [ 2.0, 2.0, 41.0, 15.0 ],
									"saved_attribute_attributes" : 									{
										"valueof" : 										{
											"parameter_annotation_name" : "Rotate X",
											"parameter_initial" : [ 0 ],
											"parameter_initial_enable" : 1,
											"parameter_longname" : "Rotate X",
											"parameter_mmax" : 360.0,
											"parameter_mmin" : -360.0,
											"parameter_modmode" : 3,
											"parameter_shortname" : "Rotate X",
											"parameter_steps" : 721,
											"parameter_type" : 0,
											"parameter_units" : "rx",
											"parameter_unitstyle" : 9
										}

									}
,
									"varname" : "live.numbox[11]"
								}

							}
, 							{
								"box" : 								{
									"annotation_name" : "Vector Z",
									"id" : "obj-20",
									"maxclass" : "live.numbox",
									"numinlets" : 1,
									"numoutlets" : 2,
									"outlettype" : [ "", "float" ],
									"parameter_enable" : 1,
									"patching_rect" : [ 520.0, 112.0, 44.0, 15.0 ],
									"presentation" : 1,
									"presentation_rect" : [ 66.0, 89.0, 62.0, 15.0 ],
									"saved_attribute_attributes" : 									{
										"valueof" : 										{
											"parameter_annotation_name" : "Vector Z",
											"parameter_initial" : [ 1 ],
											"parameter_initial_enable" : 1,
											"parameter_longname" : "Vector Z",
											"parameter_mmax" : 100.0,
											"parameter_mmin" : -100.0,
											"parameter_modmode" : 3,
											"parameter_shortname" : "Vector Z",
											"parameter_steps" : 2001,
											"parameter_type" : 0,
											"parameter_units" : "vz",
											"parameter_unitstyle" : 9
										}

									}
,
									"varname" : "live.numbox[4]"
								}

							}
, 							{
								"box" : 								{
									"annotation_name" : "Vector Y",
									"id" : "obj-22",
									"maxclass" : "live.numbox",
									"numinlets" : 1,
									"numoutlets" : 2,
									"outlettype" : [ "", "float" ],
									"parameter_enable" : 1,
									"patching_rect" : [ 456.0, 112.0, 44.0, 15.0 ],
									"presentation" : 1,
									"presentation_rect" : [ 2.0, 89.0, 62.0, 15.0 ],
									"saved_attribute_attributes" : 									{
										"valueof" : 										{
											"parameter_annotation_name" : "Vector Y",
											"parameter_initial" : [ 0 ],
											"parameter_initial_enable" : 1,
											"parameter_longname" : "Vector Y",
											"parameter_mmax" : 100.0,
											"parameter_mmin" : -100.0,
											"parameter_modmode" : 3,
											"parameter_shortname" : "Vector Y",
											"parameter_steps" : 2001,
											"parameter_type" : 0,
											"parameter_units" : "vy",
											"parameter_unitstyle" : 9
										}

									}
,
									"varname" : "live.numbox[9]"
								}

							}
, 							{
								"box" : 								{
									"annotation_name" : "Vector X",
									"id" : "obj-18",
									"maxclass" : "live.numbox",
									"numinlets" : 1,
									"numoutlets" : 2,
									"outlettype" : [ "", "float" ],
									"parameter_enable" : 1,
									"patching_rect" : [ 400.0, 112.0, 44.0, 15.0 ],
									"presentation" : 1,
									"presentation_rect" : [ 66.0, 72.0, 62.0, 15.0 ],
									"saved_attribute_attributes" : 									{
										"valueof" : 										{
											"parameter_annotation_name" : "Vector X",
											"parameter_initial" : [ 0 ],
											"parameter_initial_enable" : 1,
											"parameter_longname" : "Vector X",
											"parameter_mmax" : 100.0,
											"parameter_mmin" : -100.0,
											"parameter_modmode" : 3,
											"parameter_shortname" : "Vector X",
											"parameter_steps" : 2001,
											"parameter_type" : 0,
											"parameter_units" : "vx",
											"parameter_unitstyle" : 9
										}

									}
,
									"varname" : "live.numbox[3]"
								}

							}
, 							{
								"box" : 								{
									"id" : "obj-8",
									"maxclass" : "message",
									"numinlets" : 2,
									"numoutlets" : 1,
									"outlettype" : [ "" ],
									"patching_rect" : [ 416.0, 272.0, 106.0, 22.0 ],
									"text" : "rotate $1 $2 $3 $4"
								}

							}
, 							{
								"box" : 								{
									"id" : "obj-16",
									"maxclass" : "message",
									"numinlets" : 2,
									"numoutlets" : 1,
									"outlettype" : [ "" ],
									"patching_rect" : [ 176.0, 296.0, 107.0, 22.0 ],
									"text" : "rotatexyz $1 $2 $3"
								}

							}
, 							{
								"box" : 								{
									"annotation_name" : "Rotate",
									"id" : "obj-2",
									"maxclass" : "live.numbox",
									"numinlets" : 1,
									"numoutlets" : 2,
									"outlettype" : [ "", "float" ],
									"parameter_enable" : 1,
									"patching_rect" : [ 336.0, 112.0, 44.0, 15.0 ],
									"presentation" : 1,
									"presentation_rect" : [ 2.0, 72.0, 62.0, 15.0 ],
									"saved_attribute_attributes" : 									{
										"valueof" : 										{
											"parameter_annotation_name" : "Rotate",
											"parameter_initial" : [ 0 ],
											"parameter_initial_enable" : 1,
											"parameter_longname" : "Rotate",
											"parameter_mmax" : 360.0,
											"parameter_mmin" : -360.0,
											"parameter_modmode" : 3,
											"parameter_shortname" : "Rotate",
											"parameter_steps" : 721,
											"parameter_type" : 0,
											"parameter_units" : "a",
											"parameter_unitstyle" : 9
										}

									}
,
									"varname" : "live.numbox[8]"
								}

							}
, 							{
								"box" : 								{
									"comment" : "",
									"id" : "obj-44",
									"index" : 1,
									"maxclass" : "inlet",
									"numinlets" : 0,
									"numoutlets" : 1,
									"outlettype" : [ "bang" ],
									"patching_rect" : [ 192.0, 40.0, 30.0, 30.0 ],
									"varname" : "u165010545"
								}

							}
, 							{
								"box" : 								{
									"comment" : "",
									"id" : "obj-45",
									"index" : 1,
									"maxclass" : "outlet",
									"numinlets" : 1,
									"numoutlets" : 0,
									"patching_rect" : [ 288.0, 448.0, 30.0, 30.0 ],
									"varname" : "u871010546"
								}

							}
 ],
						"lines" : [ 							{
								"patchline" : 								{
									"destination" : [ "obj-16", 0 ],
									"source" : [ "obj-1", 0 ]
								}

							}
, 							{
								"patchline" : 								{
									"destination" : [ "obj-5", 1 ],
									"source" : [ "obj-16", 0 ]
								}

							}
, 							{
								"patchline" : 								{
									"destination" : [ "obj-4", 1 ],
									"source" : [ "obj-18", 0 ]
								}

							}
, 							{
								"patchline" : 								{
									"destination" : [ "obj-4", 0 ],
									"source" : [ "obj-2", 0 ]
								}

							}
, 							{
								"patchline" : 								{
									"destination" : [ "obj-4", 3 ],
									"source" : [ "obj-20", 0 ]
								}

							}
, 							{
								"patchline" : 								{
									"destination" : [ "obj-4", 2 ],
									"source" : [ "obj-22", 0 ]
								}

							}
, 							{
								"patchline" : 								{
									"destination" : [ "obj-1", 1 ],
									"source" : [ "obj-23", 0 ]
								}

							}
, 							{
								"patchline" : 								{
									"destination" : [ "obj-1", 0 ],
									"source" : [ "obj-24", 0 ]
								}

							}
, 							{
								"patchline" : 								{
									"destination" : [ "obj-1", 2 ],
									"source" : [ "obj-25", 0 ]
								}

							}
, 							{
								"patchline" : 								{
									"destination" : [ "obj-6", 0 ],
									"source" : [ "obj-3", 0 ]
								}

							}
, 							{
								"patchline" : 								{
									"destination" : [ "obj-8", 0 ],
									"source" : [ "obj-4", 0 ]
								}

							}
, 							{
								"patchline" : 								{
									"destination" : [ "obj-2", 0 ],
									"order" : 0,
									"source" : [ "obj-44", 0 ]
								}

							}
, 							{
								"patchline" : 								{
									"destination" : [ "obj-24", 0 ],
									"order" : 1,
									"source" : [ "obj-44", 0 ]
								}

							}
, 							{
								"patchline" : 								{
									"destination" : [ "obj-45", 0 ],
									"source" : [ "obj-5", 0 ]
								}

							}
, 							{
								"patchline" : 								{
									"destination" : [ "obj-5", 0 ],
									"source" : [ "obj-6", 0 ]
								}

							}
, 							{
								"patchline" : 								{
									"destination" : [ "obj-5", 2 ],
									"source" : [ "obj-8", 0 ]
								}

							}
 ]
					}
,
					"patching_rect" : [ 664.0, 200.0, 130.0, 70.0 ],
					"presentation" : 1,
					"presentation_rect" : [ 0.0, 85.0, 130.0, 70.0 ],
					"varname" : "roTab",
					"viewvisibility" : 1
				}

			}
, 			{
				"box" : 				{
					"annotation_name" : "Keep Ratio",
					"appearance" : 1,
					"automation" : "Off",
					"automationon" : "On",
					"fontsize" : 8.0,
					"id" : "obj-96",
					"maxclass" : "live.text",
					"numinlets" : 1,
					"numoutlets" : 2,
					"outlettype" : [ "", "" ],
					"parameter_enable" : 1,
					"patching_rect" : [ 1024.0, 0.0, 40.0, 15.0 ],
					"presentation" : 1,
					"presentation_rect" : [ 87.0, 48.0, 32.0, 15.0 ],
					"saved_attribute_attributes" : 					{
						"valueof" : 						{
							"parameter_annotation_name" : "Keep Ratio",
							"parameter_enum" : [ "Off", "On" ],
							"parameter_initial" : [ 1 ],
							"parameter_initial_enable" : 1,
							"parameter_longname" : "Keep Ratio",
							"parameter_mmax" : 1,
							"parameter_modmode" : 0,
							"parameter_shortname" : "Keep Ratio",
							"parameter_type" : 2
						}

					}
,
					"text" : "x=y",
					"texton" : "x=y",
					"varname" : "live.text"
				}

			}
, 			{
				"box" : 				{
					"id" : "obj-41",
					"maxclass" : "newobj",
					"numinlets" : 1,
					"numoutlets" : 1,
					"outlettype" : [ "" ],
					"patching_rect" : [ 520.0, 432.0, 75.0, 22.0 ],
					"text" : "prepend dim"
				}

			}
, 			{
				"box" : 				{
					"id" : "obj-39",
					"maxclass" : "newobj",
					"numinlets" : 1,
					"numoutlets" : 2,
					"outlettype" : [ "jit_gl_texture", "" ],
					"patching_rect" : [ 664.0, 432.0, 602.0, 22.0 ],
					"text" : "jit.gl.texture px-stream @name ---_TRANS @defaultimage black @type float32 @erase_color 0 0 0 0 @adapt 0"
				}

			}
, 			{
				"box" : 				{
					"id" : "obj-38",
					"maxclass" : "newobj",
					"numinlets" : 1,
					"numoutlets" : 2,
					"outlettype" : [ "jit_matrix", "" ],
					"patching_rect" : [ 664.0, 384.0, 587.0, 22.0 ],
					"text" : "jit.gl.videoplane px-stream @capture ---_TRANS @preserve_aspect 1 @blend_enable 1 @transform_reset 2"
				}

			}
, 			{
				"box" : 				{
					"id" : "obj-37",
					"maxclass" : "newobj",
					"numinlets" : 1,
					"numoutlets" : 3,
					"outlettype" : [ "", "", "" ],
					"patching_rect" : [ 520.0, 288.0, 40.0, 22.0 ],
					"text" : "t l l l"
				}

			}
, 			{
				"box" : 				{
					"id" : "obj-13",
					"maxclass" : "newobj",
					"numinlets" : 1,
					"numoutlets" : 1,
					"outlettype" : [ "bang" ],
					"patching_rect" : [ 928.0, 80.0, 24.0, 22.0 ],
					"text" : "t b"
				}

			}
, 			{
				"box" : 				{
					"bgmode" : 0,
					"border" : 0,
					"clickthrough" : 0,
					"enablehscroll" : 0,
					"enablevscroll" : 0,
					"id" : "obj-42",
					"lockeddragscroll" : 0,
					"lockedsize" : 0,
					"maxclass" : "bpatcher",
					"name" : "PX._channel.maxpat",
					"numinlets" : 5,
					"numoutlets" : 6,
					"offset" : [ 0.0, 0.0 ],
					"outlettype" : [ "int", "bang", "", "", "", "" ],
					"patching_rect" : [ 408.0, 512.0, 241.0, 33.0 ],
					"viewvisibility" : 1
				}

			}
, 			{
				"box" : 				{
					"id" : "obj-21",
					"maxclass" : "message",
					"numinlets" : 2,
					"numoutlets" : 1,
					"outlettype" : [ "" ],
					"patching_rect" : [ 1016.0, 312.0, 83.0, 22.0 ],
					"text" : "scale $1 $2 0."
				}

			}
, 			{
				"box" : 				{
					"id" : "obj-14",
					"maxclass" : "message",
					"numinlets" : 2,
					"numoutlets" : 1,
					"outlettype" : [ "" ],
					"patching_rect" : [ 1152.0, 312.0, 97.0, 22.0 ],
					"text" : "position $1 $2 0."
				}

			}
, 			{
				"box" : 				{
					"id" : "obj-3",
					"maxclass" : "newobj",
					"numinlets" : 2,
					"numoutlets" : 1,
					"outlettype" : [ "" ],
					"patching_rect" : [ 1152.0, 264.0, 41.0, 22.0 ],
					"text" : "pak f f"
				}

			}
, 			{
				"box" : 				{
					"id" : "obj-6",
					"maxclass" : "newobj",
					"numinlets" : 1,
					"numoutlets" : 0,
					"patching_rect" : [ 280.0, 168.0, 82.0, 22.0 ],
					"text" : "s ---this_bang"
				}

			}
, 			{
				"box" : 				{
					"id" : "obj-19",
					"maxclass" : "newobj",
					"numinlets" : 2,
					"numoutlets" : 1,
					"outlettype" : [ "" ],
					"patching_rect" : [ 1016.0, 264.0, 41.0, 22.0 ],
					"text" : "pak f f"
				}

			}
, 			{
				"box" : 				{
					"annotation_name" : "Scale Y",
					"id" : "obj-62",
					"maxclass" : "live.numbox",
					"numinlets" : 1,
					"numoutlets" : 2,
					"outlettype" : [ "", "float" ],
					"parameter_enable" : 1,
					"patching_rect" : [ 1048.0, 232.0, 44.0, 15.0 ],
					"presentation" : 1,
					"presentation_rect" : [ 45.0, 48.0, 40.0, 15.0 ],
					"saved_attribute_attributes" : 					{
						"valueof" : 						{
							"parameter_annotation_name" : "Scale Y",
							"parameter_initial" : [ 1 ],
							"parameter_initial_enable" : 1,
							"parameter_longname" : "Scale Y",
							"parameter_mmax" : 10.0,
							"parameter_mmin" : -10.0,
							"parameter_modmode" : 3,
							"parameter_shortname" : "Scale Y",
							"parameter_steps" : 1001,
							"parameter_type" : 0,
							"parameter_units" : "sy",
							"parameter_unitstyle" : 9
						}

					}
,
					"varname" : "live.numbox[5]"
				}

			}
, 			{
				"box" : 				{
					"annotation_name" : "Scale X",
					"id" : "obj-63",
					"maxclass" : "live.numbox",
					"numinlets" : 1,
					"numoutlets" : 2,
					"outlettype" : [ "", "float" ],
					"parameter_enable" : 1,
					"patching_rect" : [ 1088.0, 120.0, 44.0, 15.0 ],
					"presentation" : 1,
					"presentation_rect" : [ 2.0, 48.0, 41.0, 15.0 ],
					"saved_attribute_attributes" : 					{
						"valueof" : 						{
							"parameter_annotation_name" : "Scale X",
							"parameter_initial" : [ 1 ],
							"parameter_initial_enable" : 1,
							"parameter_longname" : "Scale X",
							"parameter_mmax" : 10.0,
							"parameter_mmin" : -10.0,
							"parameter_modmode" : 3,
							"parameter_shortname" : "Scale X",
							"parameter_steps" : 1001,
							"parameter_type" : 0,
							"parameter_units" : "sx",
							"parameter_unitstyle" : 9
						}

					}
,
					"varname" : "live.numbox"
				}

			}
, 			{
				"box" : 				{
					"annotation_name" : "Offset Y",
					"id" : "obj-32",
					"maxclass" : "live.numbox",
					"numinlets" : 1,
					"numoutlets" : 2,
					"outlettype" : [ "", "float" ],
					"parameter_enable" : 1,
					"patching_rect" : [ 1200.0, 232.0, 44.0, 15.0 ],
					"presentation" : 1,
					"presentation_rect" : [ 66.0, 16.0, 62.0, 15.0 ],
					"saved_attribute_attributes" : 					{
						"valueof" : 						{
							"parameter_annotation_name" : "Offset Y",
							"parameter_initial" : [ 0 ],
							"parameter_initial_enable" : 1,
							"parameter_longname" : "Offset Y",
							"parameter_mmax" : 10.0,
							"parameter_mmin" : -10.0,
							"parameter_modmode" : 3,
							"parameter_shortname" : "Offset Y",
							"parameter_steps" : 1001,
							"parameter_type" : 0,
							"parameter_units" : "y",
							"parameter_unitstyle" : 9
						}

					}
,
					"varname" : "live.numbox[2]"
				}

			}
, 			{
				"box" : 				{
					"annotation_name" : "Offset X",
					"id" : "obj-31",
					"maxclass" : "live.numbox",
					"numinlets" : 1,
					"numoutlets" : 2,
					"outlettype" : [ "", "float" ],
					"parameter_enable" : 1,
					"patching_rect" : [ 1144.0, 232.0, 44.0, 15.0 ],
					"presentation" : 1,
					"presentation_rect" : [ 2.0, 16.0, 62.0, 15.0 ],
					"saved_attribute_attributes" : 					{
						"valueof" : 						{
							"parameter_annotation_name" : "Offset X",
							"parameter_initial" : [ 0 ],
							"parameter_initial_enable" : 1,
							"parameter_longname" : "Offset X",
							"parameter_mmax" : 10.0,
							"parameter_mmin" : -10.0,
							"parameter_modmode" : 3,
							"parameter_shortname" : "Offset X",
							"parameter_steps" : 1001,
							"parameter_type" : 0,
							"parameter_units" : "x",
							"parameter_unitstyle" : 9
						}

					}
,
					"varname" : "live.numbox[1]"
				}

			}
, 			{
				"box" : 				{
					"id" : "obj-17",
					"maxclass" : "button",
					"numinlets" : 1,
					"numoutlets" : 1,
					"outlettype" : [ "bang" ],
					"parameter_enable" : 0,
					"patching_rect" : [ 128.0, 88.0, 24.0, 24.0 ]
				}

			}
, 			{
				"box" : 				{
					"id" : "obj-15",
					"maxclass" : "newobj",
					"numinlets" : 1,
					"numoutlets" : 0,
					"patching_rect" : [ 128.0, 136.0, 56.0, 22.0 ],
					"text" : "s ---reset"
				}

			}
, 			{
				"box" : 				{
					"id" : "obj-309",
					"maxclass" : "newobj",
					"numinlets" : 0,
					"numoutlets" : 1,
					"outlettype" : [ "" ],
					"patching_rect" : [ 752.0, 472.0, 80.0, 22.0 ],
					"text" : "r ---this_bang"
				}

			}
, 			{
				"box" : 				{
					"args" : [ "audio" ],
					"bgmode" : 0,
					"border" : 0,
					"clickthrough" : 0,
					"enablehscroll" : 0,
					"enablevscroll" : 0,
					"id" : "obj-12",
					"lockeddragscroll" : 0,
					"lockedsize" : 0,
					"maxclass" : "bpatcher",
					"name" : "PX._chain.maxpat",
					"numinlets" : 3,
					"numoutlets" : 4,
					"offset" : [ 0.0, 0.0 ],
					"outlettype" : [ "", "", "", "" ],
					"patching_rect" : [ 672.0, 512.0, 240.0, 32.0 ],
					"viewvisibility" : 1
				}

			}
, 			{
				"box" : 				{
					"id" : "obj-376",
					"maxclass" : "newobj",
					"numinlets" : 2,
					"numoutlets" : 1,
					"outlettype" : [ "int" ],
					"patching_rect" : [ 408.0, 136.0, 31.0, 22.0 ],
					"text" : "int 8"
				}

			}
, 			{
				"box" : 				{
					"id" : "obj-372",
					"maxclass" : "newobj",
					"numinlets" : 0,
					"numoutlets" : 1,
					"outlettype" : [ "" ],
					"patching_rect" : [ 408.0, 104.0, 54.0, 22.0 ],
					"text" : "r ---reset"
				}

			}
, 			{
				"box" : 				{
					"activebgoncolor" : [ 1.0, 0.411764705882353, 0.498039215686275, 1.0 ],
					"annotation" : "Sets target mix channel, rendered in Mix View device, alternative to Mix Channel device. When P (pass) is select texture is processed by following device.",
					"annotation_name" : "Channel",
					"focusbordercolor" : [ 0.752941176470588, 0.752941176470588, 0.752941176470588, 0.0 ],
					"id" : "obj-366",
					"maxclass" : "live.tab",
					"num_lines_patching" : 1,
					"num_lines_presentation" : 1,
					"numinlets" : 1,
					"numoutlets" : 3,
					"outlettype" : [ "", "", "float" ],
					"parameter_enable" : 1,
					"patching_rect" : [ 408.0, 200.0, 100.0, 20.0 ],
					"presentation" : 1,
					"presentation_rect" : [ 2.0, 153.0, 126.0, 15.0 ],
					"saved_attribute_attributes" : 					{
						"activebgoncolor" : 						{
							"expression" : "themecolor.live_display_handle_two"
						}
,
						"focusbordercolor" : 						{
							"expression" : ""
						}
,
						"valueof" : 						{
							"parameter_annotation_name" : "Channel",
							"parameter_enum" : [ "1", "2", "3", "4", "5", "6", "7", "8", "P" ],
							"parameter_info" : "Sets target mix channel, rendered in Mix View device, alternative to Mix Channel device. When P (pass) is select texture is processed by following device.",
							"parameter_initial" : [ 8 ],
							"parameter_initial_enable" : 1,
							"parameter_longname" : "Channel",
							"parameter_mmax" : 8,
							"parameter_modmode" : 0,
							"parameter_shortname" : "Channel",
							"parameter_type" : 2,
							"parameter_unitstyle" : 9
						}

					}
,
					"spacing_x" : 3.0,
					"varname" : "live.tab"
				}

			}
, 			{
				"box" : 				{
					"id" : "obj-9",
					"maxclass" : "newobj",
					"numinlets" : 1,
					"numoutlets" : 3,
					"outlettype" : [ "bang", "int", "int" ],
					"patching_rect" : [ 280.0, 88.0, 100.0, 22.0 ],
					"text" : "live.thisdevice"
				}

			}
, 			{
				"box" : 				{
					"id" : "obj-11",
					"maxclass" : "newobj",
					"numinlets" : 2,
					"numoutlets" : 2,
					"outlettype" : [ "signal", "signal" ],
					"patching_rect" : [ 8.0, 88.0, 62.0, 22.0 ],
					"text" : "plugin~"
				}

			}
, 			{
				"box" : 				{
					"id" : "obj-10",
					"maxclass" : "newobj",
					"numinlets" : 2,
					"numoutlets" : 2,
					"outlettype" : [ "signal", "signal" ],
					"patching_rect" : [ 8.0, 136.0, 62.0, 22.0 ],
					"text" : "plugout~"
				}

			}
, 			{
				"box" : 				{
					"id" : "obj-26",
					"maxclass" : "live.comment",
					"numinlets" : 1,
					"numoutlets" : 0,
					"patching_rect" : [ 8.0, 272.0, 150.0, 18.0 ],
					"presentation" : 1,
					"presentation_rect" : [ 2.0, 68.0, 38.0, 18.0 ],
					"text" : "Rotate",
					"textjustification" : 0
				}

			}
, 			{
				"box" : 				{
					"id" : "obj-7",
					"maxclass" : "live.comment",
					"numinlets" : 1,
					"numoutlets" : 0,
					"patching_rect" : [ 8.0, 224.0, 150.0, 18.0 ],
					"presentation" : 1,
					"presentation_rect" : [ 2.0, 32.0, 120.0, 18.0 ],
					"text" : "Scale",
					"textjustification" : 0
				}

			}
, 			{
				"box" : 				{
					"id" : "obj-5",
					"maxclass" : "live.comment",
					"numinlets" : 1,
					"numoutlets" : 0,
					"patching_rect" : [ 8.0, 184.0, 150.0, 18.0 ],
					"presentation" : 1,
					"presentation_rect" : [ 2.0, 0.0, 120.0, 18.0 ],
					"text" : "Offset",
					"textjustification" : 0
				}

			}
, 			{
				"box" : 				{
					"annotation_name" : "Rotation Mode",
					"background" : 1,
					"focusbordercolor" : [ 0.447058823529412, 0.447058823529412, 0.447058823529412, 0.0 ],
					"fontsize" : 9.0,
					"id" : "obj-43",
					"maxclass" : "live.tab",
					"num_lines_patching" : 1,
					"num_lines_presentation" : 1,
					"numinlets" : 1,
					"numoutlets" : 3,
					"outlettype" : [ "", "", "float" ],
					"parameter_enable" : 1,
					"patching_rect" : [ 552.0, 32.0, 100.0, 20.0 ],
					"presentation" : 1,
					"presentation_rect" : [ 63.0, 69.0, 64.0, 15.0 ],
					"saved_attribute_attributes" : 					{
						"focusbordercolor" : 						{
							"expression" : ""
						}
,
						"valueof" : 						{
							"parameter_annotation_name" : "Rotation Mode",
							"parameter_enum" : [ "Axis", "Vector" ],
							"parameter_longname" : "Rotation Mode",
							"parameter_mmax" : 1,
							"parameter_modmode" : 0,
							"parameter_shortname" : "Rotation Mode",
							"parameter_type" : 2,
							"parameter_unitstyle" : 9
						}

					}
,
					"spacing_x" : 3.0,
					"spacing_y" : 3.0,
					"varname" : "live.tab[1]"
				}

			}
 ],
		"lines" : [ 			{
				"patchline" : 				{
					"destination" : [ "obj-108", 0 ],
					"source" : [ "obj-100", 0 ]
				}

			}
, 			{
				"patchline" : 				{
					"destination" : [ "obj-100", 0 ],
					"source" : [ "obj-101", 0 ]
				}

			}
, 			{
				"patchline" : 				{
					"destination" : [ "obj-99", 0 ],
					"source" : [ "obj-101", 1 ]
				}

			}
, 			{
				"patchline" : 				{
					"destination" : [ "obj-63", 0 ],
					"source" : [ "obj-102", 0 ]
				}

			}
, 			{
				"patchline" : 				{
					"destination" : [ "obj-102", 0 ],
					"source" : [ "obj-108", 0 ]
				}

			}
, 			{
				"patchline" : 				{
					"destination" : [ "obj-10", 1 ],
					"source" : [ "obj-11", 1 ]
				}

			}
, 			{
				"patchline" : 				{
					"destination" : [ "obj-10", 0 ],
					"source" : [ "obj-11", 0 ]
				}

			}
, 			{
				"patchline" : 				{
					"destination" : [ "obj-24", 0 ],
					"order" : 0,
					"source" : [ "obj-12", 0 ]
				}

			}
, 			{
				"patchline" : 				{
					"destination" : [ "obj-42", 2 ],
					"order" : 1,
					"source" : [ "obj-12", 0 ]
				}

			}
, 			{
				"patchline" : 				{
					"destination" : [ "obj-62", 0 ],
					"source" : [ "obj-122", 0 ]
				}

			}
, 			{
				"patchline" : 				{
					"destination" : [ "obj-31", 0 ],
					"order" : 0,
					"source" : [ "obj-13", 0 ]
				}

			}
, 			{
				"patchline" : 				{
					"destination" : [ "obj-47", 0 ],
					"order" : 2,
					"source" : [ "obj-13", 0 ]
				}

			}
, 			{
				"patchline" : 				{
					"destination" : [ "obj-63", 0 ],
					"order" : 1,
					"source" : [ "obj-13", 0 ]
				}

			}
, 			{
				"patchline" : 				{
					"destination" : [ "obj-38", 0 ],
					"source" : [ "obj-14", 0 ]
				}

			}
, 			{
				"patchline" : 				{
					"destination" : [ "obj-18", 1 ],
					"source" : [ "obj-16", 3 ]
				}

			}
, 			{
				"patchline" : 				{
					"destination" : [ "obj-18", 0 ],
					"source" : [ "obj-16", 2 ]
				}

			}
, 			{
				"patchline" : 				{
					"destination" : [ "obj-23", 0 ],
					"source" : [ "obj-16", 1 ]
				}

			}
, 			{
				"patchline" : 				{
					"destination" : [ "obj-15", 0 ],
					"source" : [ "obj-17", 0 ]
				}

			}
, 			{
				"patchline" : 				{
					"destination" : [ "obj-41", 0 ],
					"order" : 0,
					"source" : [ "obj-18", 0 ]
				}

			}
, 			{
				"patchline" : 				{
					"destination" : [ "obj-42", 4 ],
					"order" : 1,
					"source" : [ "obj-18", 0 ]
				}

			}
, 			{
				"patchline" : 				{
					"destination" : [ "obj-21", 0 ],
					"source" : [ "obj-19", 0 ]
				}

			}
, 			{
				"patchline" : 				{
					"destination" : [ "obj-1", 0 ],
					"source" : [ "obj-2", 0 ]
				}

			}
, 			{
				"patchline" : 				{
					"destination" : [ "obj-6", 0 ],
					"source" : [ "obj-20", 0 ]
				}

			}
, 			{
				"patchline" : 				{
					"destination" : [ "obj-38", 0 ],
					"source" : [ "obj-21", 0 ]
				}

			}
, 			{
				"patchline" : 				{
					"destination" : [ "obj-47", 1 ],
					"source" : [ "obj-22", 1 ]
				}

			}
, 			{
				"patchline" : 				{
					"destination" : [ "obj-47", 0 ],
					"source" : [ "obj-22", 0 ]
				}

			}
, 			{
				"patchline" : 				{
					"destination" : [ "obj-38", 0 ],
					"source" : [ "obj-23", 0 ]
				}

			}
, 			{
				"patchline" : 				{
					"destination" : [ "obj-37", 0 ],
					"source" : [ "obj-24", 0 ]
				}

			}
, 			{
				"patchline" : 				{
					"destination" : [ "obj-14", 0 ],
					"source" : [ "obj-3", 0 ]
				}

			}
, 			{
				"patchline" : 				{
					"destination" : [ "obj-12", 1 ],
					"source" : [ "obj-309", 0 ]
				}

			}
, 			{
				"patchline" : 				{
					"destination" : [ "obj-3", 0 ],
					"source" : [ "obj-31", 0 ]
				}

			}
, 			{
				"patchline" : 				{
					"destination" : [ "obj-3", 1 ],
					"source" : [ "obj-32", 0 ]
				}

			}
, 			{
				"patchline" : 				{
					"destination" : [ "obj-42", 0 ],
					"source" : [ "obj-366", 0 ]
				}

			}
, 			{
				"patchline" : 				{
					"destination" : [ "obj-13", 0 ],
					"source" : [ "obj-37", 2 ]
				}

			}
, 			{
				"patchline" : 				{
					"destination" : [ "obj-16", 0 ],
					"source" : [ "obj-37", 1 ]
				}

			}
, 			{
				"patchline" : 				{
					"destination" : [ "obj-376", 0 ],
					"source" : [ "obj-372", 0 ]
				}

			}
, 			{
				"patchline" : 				{
					"destination" : [ "obj-366", 0 ],
					"source" : [ "obj-376", 0 ]
				}

			}
, 			{
				"patchline" : 				{
					"destination" : [ "obj-42", 3 ],
					"source" : [ "obj-39", 0 ]
				}

			}
, 			{
				"patchline" : 				{
					"destination" : [ "obj-8", 0 ],
					"source" : [ "obj-4", 0 ]
				}

			}
, 			{
				"patchline" : 				{
					"destination" : [ "obj-38", 0 ],
					"order" : 1,
					"source" : [ "obj-41", 0 ]
				}

			}
, 			{
				"patchline" : 				{
					"destination" : [ "obj-39", 0 ],
					"order" : 0,
					"source" : [ "obj-41", 0 ]
				}

			}
, 			{
				"patchline" : 				{
					"destination" : [ "obj-12", 0 ],
					"source" : [ "obj-42", 4 ]
				}

			}
, 			{
				"patchline" : 				{
					"destination" : [ "obj-366", 0 ],
					"source" : [ "obj-42", 2 ]
				}

			}
, 			{
				"patchline" : 				{
					"destination" : [ "obj-39", 0 ],
					"source" : [ "obj-42", 3 ]
				}

			}
, 			{
				"patchline" : 				{
					"destination" : [ "obj-22", 0 ],
					"order" : 0,
					"source" : [ "obj-43", 0 ]
				}

			}
, 			{
				"patchline" : 				{
					"destination" : [ "obj-4", 0 ],
					"order" : 1,
					"source" : [ "obj-43", 0 ]
				}

			}
, 			{
				"patchline" : 				{
					"destination" : [ "obj-38", 0 ],
					"source" : [ "obj-47", 0 ]
				}

			}
, 			{
				"patchline" : 				{
					"destination" : [ "obj-19", 1 ],
					"source" : [ "obj-62", 0 ]
				}

			}
, 			{
				"patchline" : 				{
					"destination" : [ "obj-98", 1 ],
					"source" : [ "obj-63", 0 ]
				}

			}
, 			{
				"patchline" : 				{
					"destination" : [ "obj-2", 0 ],
					"source" : [ "obj-8", 0 ]
				}

			}
, 			{
				"patchline" : 				{
					"destination" : [ "obj-82", 0 ],
					"source" : [ "obj-81", 0 ]
				}

			}
, 			{
				"patchline" : 				{
					"destination" : [ "obj-122", 0 ],
					"source" : [ "obj-82", 0 ]
				}

			}
, 			{
				"patchline" : 				{
					"destination" : [ "obj-20", 0 ],
					"source" : [ "obj-9", 1 ]
				}

			}
, 			{
				"patchline" : 				{
					"destination" : [ "obj-101", 0 ],
					"order" : 1,
					"source" : [ "obj-96", 0 ]
				}

			}
, 			{
				"patchline" : 				{
					"destination" : [ "obj-81", 0 ],
					"order" : 0,
					"source" : [ "obj-96", 0 ]
				}

			}
, 			{
				"patchline" : 				{
					"destination" : [ "obj-19", 0 ],
					"order" : 1,
					"source" : [ "obj-98", 1 ]
				}

			}
, 			{
				"patchline" : 				{
					"destination" : [ "obj-19", 0 ],
					"source" : [ "obj-98", 0 ]
				}

			}
, 			{
				"patchline" : 				{
					"destination" : [ "obj-62", 0 ],
					"order" : 0,
					"source" : [ "obj-98", 1 ]
				}

			}
, 			{
				"patchline" : 				{
					"destination" : [ "obj-98", 0 ],
					"source" : [ "obj-99", 0 ]
				}

			}
 ],
		"parameters" : 		{
			"obj-31" : [ "Offset X", "Offset X", 0 ],
			"obj-32" : [ "Offset Y", "Offset Y", 0 ],
			"obj-366" : [ "Channel", "Channel", 0 ],
			"obj-43" : [ "Rotation Mode", "Rotation Mode", 0 ],
			"obj-47::obj-18" : [ "Vector X", "Vector X", 0 ],
			"obj-47::obj-2" : [ "Rotate", "Rotate", 0 ],
			"obj-47::obj-20" : [ "Vector Z", "Vector Z", 0 ],
			"obj-47::obj-22" : [ "Vector Y", "Vector Y", 0 ],
			"obj-47::obj-23" : [ "Rotate Y", "Rotate Y", 0 ],
			"obj-47::obj-24" : [ "Rotate X", "Rotate X", 0 ],
			"obj-47::obj-25" : [ "Rotate Z", "Rotate Z", 0 ],
			"obj-62" : [ "Scale Y", "Scale Y", 0 ],
			"obj-63" : [ "Scale X", "Scale X", 0 ],
			"obj-96" : [ "Keep Ratio", "Keep Ratio", 0 ],
			"inherited_shortname" : 1
		}
,
		"dependency_cache" : [ 			{
				"name" : "PX._chain.js",
				"bootpath" : "~/Documents/GitHub/px-stream/devices",
				"patcherrelativepath" : ".",
				"type" : "TEXT",
				"implicit" : 1
			}
, 			{
				"name" : "PX._chain.maxpat",
				"bootpath" : "~/Documents/GitHub/px-stream/devices",
				"patcherrelativepath" : ".",
				"type" : "JSON",
				"implicit" : 1
			}
, 			{
				"name" : "PX._channel.maxpat",
				"bootpath" : "~/Documents/GitHub/px-stream/devices",
				"patcherrelativepath" : ".",
				"type" : "JSON",
				"implicit" : 1
			}
, 			{
				"name" : "PX._legend.maxpat",
				"bootpath" : "~/Documents/GitHub/px-stream/devices",
				"patcherrelativepath" : ".",
				"type" : "JSON",
				"implicit" : 1
			}
 ],
		"autosave" : 0
	}

}
