{
	"patcher" : 	{
		"fileversion" : 1,
		"appversion" : 		{
			"major" : 9,
			"minor" : 0,
			"revision" : 9,
			"architecture" : "x64",
			"modernui" : 1
		}
,
		"classnamespace" : "box",
		"rect" : [ 200.0, 74.0, 281.0, 508.0 ],
		"openinpresentation" : 1,
		"gridonopen" : 2,
		"gridsize" : [ 8.0, 8.0 ],
		"gridsnaponopen" : 2,
		"objectsnaponopen" : 0,
		"enablehscroll" : 0,
		"enablevscroll" : 0,
		"integercoordinates" : 1,
		"boxes" : [ 			{
				"box" : 				{
					"fontsize" : 13.0,
					"id" : "obj-8",
					"maxclass" : "live.comment",
					"numinlets" : 1,
					"numoutlets" : 0,
					"patching_rect" : [ 144.0, 144.0, 192.0, 22.0 ],
					"presentation" : 1,
					"presentation_rect" : [ 0.0, 149.0, 104.0, 22.0 ],
					"text" : "00:00",
					"textjustification" : 1
				}

			}
, 			{
				"box" : 				{
					"annotation_name" : "Folder Images",
					"fontsize" : 8.0,
					"id" : "obj-7",
					"maxclass" : "live.text",
					"mode" : 0,
					"numinlets" : 1,
					"numoutlets" : 2,
					"outlettype" : [ "", "" ],
					"parameter_enable" : 1,
					"patching_rect" : [ 23.0, 431.0, 32.0, 32.0 ],
					"pictures" : [ "refresh.svg", "refresh.svg" ],
					"presentation" : 1,
					"presentation_rect" : [ 2.0, 20.0, 42.0, 16.0 ],
					"remapsvgcolors" : 1,
					"saved_attribute_attributes" : 					{
						"valueof" : 						{
							"parameter_annotation_name" : "Folder Images",
							"parameter_enum" : [ "val1", "val2" ],
							"parameter_invisible" : 2,
							"parameter_longname" : "Folder Images",
							"parameter_mmax" : 1,
							"parameter_modmode" : 0,
							"parameter_shortname" : "Folder Images",
							"parameter_type" : 2
						}

					}
,
					"text" : "Folder",
					"usesvgviewbox" : 1,
					"varname" : "live.text[2]"
				}

			}
, 			{
				"box" : 				{
					"annotation_name" : "Folder Video",
					"fontsize" : 8.0,
					"id" : "obj-361",
					"maxclass" : "live.text",
					"mode" : 0,
					"numinlets" : 1,
					"numoutlets" : 2,
					"outlettype" : [ "", "" ],
					"parameter_enable" : 1,
					"patching_rect" : [ 8.0, 416.0, 32.0, 32.0 ],
					"pictures" : [ "refresh.svg", "refresh.svg" ],
					"presentation" : 1,
					"presentation_rect" : [ 60.0, 20.0, 42.0, 16.0 ],
					"remapsvgcolors" : 1,
					"saved_attribute_attributes" : 					{
						"valueof" : 						{
							"parameter_annotation_name" : "Folder Video",
							"parameter_enum" : [ "val1", "val2" ],
							"parameter_invisible" : 2,
							"parameter_longname" : "Folder Video",
							"parameter_mmax" : 1,
							"parameter_modmode" : 0,
							"parameter_shortname" : "Folder Video",
							"parameter_type" : 2
						}

					}
,
					"text" : "Folder",
					"usesvgviewbox" : 1,
					"varname" : "live.text[9]"
				}

			}
, 			{
				"box" : 				{
					"id" : "obj-357",
					"maxclass" : "newobj",
					"numinlets" : 1,
					"numoutlets" : 1,
					"outlettype" : [ "" ],
					"patching_rect" : [ 64.0, 472.0, 57.0, 22.0 ],
					"text" : "tosymbol"
				}

			}
, 			{
				"box" : 				{
					"id" : "obj-343",
					"maxclass" : "newobj",
					"numinlets" : 0,
					"numoutlets" : 1,
					"outlettype" : [ "" ],
					"patching_rect" : [ 64.0, 424.0, 58.0, 22.0 ],
					"text" : "r ---folder"
				}

			}
, 			{
				"box" : 				{
					"id" : "obj-337",
					"maxclass" : "newobj",
					"numinlets" : 2,
					"numoutlets" : 2,
					"outlettype" : [ "", "" ],
					"patching_rect" : [ 8.0, 512.0, 38.0, 22.0 ],
					"text" : "zl.reg"
				}

			}
, 			{
				"box" : 				{
					"id" : "obj-335",
					"maxclass" : "newobj",
					"numinlets" : 1,
					"numoutlets" : 1,
					"outlettype" : [ "" ],
					"patching_rect" : [ 8.0, 600.0, 57.0, 22.0 ],
					"text" : "tosymbol"
				}

			}
, 			{
				"box" : 				{
					"id" : "obj-326",
					"maxclass" : "newobj",
					"numinlets" : 1,
					"numoutlets" : 1,
					"outlettype" : [ "" ],
					"patching_rect" : [ 8.0, 560.0, 87.0, 22.0 ],
					"text" : "sprintf file://%s"
				}

			}
, 			{
				"box" : 				{
					"id" : "obj-336",
					"linecount" : 2,
					"maxclass" : "message",
					"numinlets" : 2,
					"numoutlets" : 1,
					"outlettype" : [ "" ],
					"patching_rect" : [ 8.0, 640.0, 129.0, 35.0 ],
					"text" : ";\rmax launchbrowser $1"
				}

			}
, 			{
				"box" : 				{
					"annotation_name" : "Codec",
					"id" : "obj-3",
					"maxclass" : "live.menu",
					"numinlets" : 1,
					"numoutlets" : 3,
					"outlettype" : [ "", "", "float" ],
					"parameter_enable" : 1,
					"patching_rect" : [ 168.0, 88.0, 100.0, 15.0 ],
					"presentation" : 1,
					"presentation_rect" : [ 2.0, 2.0, 100.0, 15.0 ],
					"saved_attribute_attributes" : 					{
						"valueof" : 						{
							"parameter_annotation_name" : "Codec",
							"parameter_enum" : [ "jpeg", "h264", "prores4444", "prores422" ],
							"parameter_initial" : [ 3.0 ],
							"parameter_initial_enable" : 1,
							"parameter_longname" : "Codec",
							"parameter_mmax" : 3,
							"parameter_modmode" : 0,
							"parameter_shortname" : "Codec",
							"parameter_type" : 2
						}

					}
,
					"varname" : "live.menu"
				}

			}
, 			{
				"box" : 				{
					"activebgoncolor" : [ 0.594473705410263, 0.720560630419913, 0.928309050695498, 1.0 ],
					"annotation_name" : "REC",
					"automation" : "Off",
					"automationon" : "On",
					"id" : "obj-2",
					"maxclass" : "live.text",
					"numinlets" : 1,
					"numoutlets" : 2,
					"outlettype" : [ "", "" ],
					"parameter_enable" : 1,
					"patching_rect" : [ 335.0, 135.0, 44.0, 15.0 ],
					"presentation" : 1,
					"presentation_rect" : [ 66.0, 46.0, 32.0, 32.0 ],
					"saved_attribute_attributes" : 					{
						"activebgoncolor" : 						{
							"expression" : "themecolor.live_value_arc"
						}
,
						"valueof" : 						{
							"parameter_annotation_name" : "REC",
							"parameter_enum" : [ "Off", "On" ],
							"parameter_longname" : "REC",
							"parameter_mmax" : 1,
							"parameter_modmode" : 0,
							"parameter_shortname" : "REC",
							"parameter_type" : 2
						}

					}
,
					"text" : "REC",
					"texton" : "REC",
					"varname" : "live.text"
				}

			}
, 			{
				"box" : 				{
					"activebgoncolor" : [ 0.594473705410263, 0.720560630419913, 0.928309050695498, 1.0 ],
					"annotation_name" : "SCR",
					"automation" : "Off",
					"automationon" : "On",
					"id" : "obj-1",
					"maxclass" : "live.text",
					"mode" : 0,
					"numinlets" : 1,
					"numoutlets" : 2,
					"outlettype" : [ "", "" ],
					"parameter_enable" : 1,
					"patching_rect" : [ 320.0, 120.0, 44.0, 15.0 ],
					"presentation" : 1,
					"presentation_rect" : [ 6.0, 45.0, 34.0, 34.0 ],
					"saved_attribute_attributes" : 					{
						"activebgoncolor" : 						{
							"expression" : "themecolor.live_value_arc"
						}
,
						"valueof" : 						{
							"parameter_annotation_name" : "SCR",
							"parameter_enum" : [ "Off", "On" ],
							"parameter_longname" : "SCR",
							"parameter_mmax" : 1,
							"parameter_modmode" : 0,
							"parameter_shortname" : "SCR",
							"parameter_type" : 2
						}

					}
,
					"text" : "SCR",
					"varname" : "live.text[1]"
				}

			}
, 			{
				"box" : 				{
					"id" : "obj-80",
					"maxclass" : "newobj",
					"numinlets" : 1,
					"numoutlets" : 1,
					"outlettype" : [ "bang" ],
					"patching_rect" : [ 16.0, 208.0, 22.0, 22.0 ],
					"text" : "t b"
				}

			}
, 			{
				"box" : 				{
					"id" : "obj-4",
					"maxclass" : "newobj",
					"numinlets" : 1,
					"numoutlets" : 0,
					"patching_rect" : [ 16.0, 240.0, 82.0, 22.0 ],
					"text" : "s ---this_bang"
				}

			}
, 			{
				"box" : 				{
					"id" : "obj-9",
					"maxclass" : "newobj",
					"numinlets" : 1,
					"numoutlets" : 3,
					"outlettype" : [ "bang", "int", "int" ],
					"patching_rect" : [ 16.0, 168.0, 100.0, 22.0 ],
					"text" : "live.thisdevice"
				}

			}
, 			{
				"box" : 				{
					"bgmode" : 0,
					"border" : 0,
					"clickthrough" : 0,
					"enablehscroll" : 0,
					"enablevscroll" : 0,
					"id" : "obj-42",
					"lockeddragscroll" : 0,
					"lockedsize" : 0,
					"maxclass" : "bpatcher",
					"name" : "PX._channel.maxpat",
					"numinlets" : 5,
					"numoutlets" : 6,
					"offset" : [ 0.0, 0.0 ],
					"outlettype" : [ "int", "bang", "", "", "", "" ],
					"patching_rect" : [ 151.0, 231.0, 240.0, 30.0 ],
					"viewvisibility" : 1
				}

			}
, 			{
				"box" : 				{
					"id" : "obj-309",
					"maxclass" : "newobj",
					"numinlets" : 0,
					"numoutlets" : 1,
					"outlettype" : [ "" ],
					"patching_rect" : [ 487.0, 191.0, 80.0, 22.0 ],
					"text" : "r ---this_bang"
				}

			}
, 			{
				"box" : 				{
					"args" : [ "audio" ],
					"bgmode" : 0,
					"border" : 0,
					"clickthrough" : 0,
					"enablehscroll" : 0,
					"enablevscroll" : 0,
					"id" : "obj-12",
					"lockeddragscroll" : 0,
					"lockedsize" : 0,
					"maxclass" : "bpatcher",
					"name" : "PX._chain.maxpat",
					"numinlets" : 3,
					"numoutlets" : 4,
					"offset" : [ 0.0, 0.0 ],
					"outlettype" : [ "", "", "", "" ],
					"patching_rect" : [ 407.0, 231.0, 240.0, 32.0 ],
					"viewvisibility" : 1
				}

			}
, 			{
				"box" : 				{
					"id" : "obj-376",
					"maxclass" : "newobj",
					"numinlets" : 1,
					"numoutlets" : 1,
					"outlettype" : [ "" ],
					"patching_rect" : [ 152.0, 192.0, 73.0, 22.0 ],
					"text" : "loadmess 8"
				}

			}
, 			{
				"box" : 				{
					"bgmode" : 0,
					"border" : 0,
					"clickthrough" : 0,
					"enablehscroll" : 0,
					"enablevscroll" : 0,
					"id" : "obj-84",
					"lockeddragscroll" : 0,
					"lockedsize" : 0,
					"maxclass" : "bpatcher",
					"name" : "PX._legend.maxpat",
					"numinlets" : 0,
					"numoutlets" : 0,
					"offset" : [ 0.0, 0.0 ],
					"patching_rect" : [ 8.0, 8.0, 351.0, 47.0 ],
					"viewvisibility" : 1
				}

			}
, 			{
				"box" : 				{
					"bgcolor" : [ 0.279471418544607, 0.279471350143365, 0.279471368104493, 1.0 ],
					"blinkcolor" : [ 0.972549019607843, 0.462745098039216, 0.501960784313725, 1.0 ],
					"id" : "obj-6",
					"ignoreclick" : 1,
					"maxclass" : "button",
					"numinlets" : 1,
					"numoutlets" : 1,
					"outlettype" : [ "bang" ],
					"outlinecolor" : [ 0.279471418544607, 0.279471350143365, 0.279471368104493, 1.0 ],
					"parameter_enable" : 0,
					"patching_rect" : [ 408.0, 304.0, 24.0, 24.0 ],
					"presentation" : 1,
					"presentation_rect" : [ 0.0, 64.0, 104.0, 104.0 ],
					"saved_attribute_attributes" : 					{
						"bgcolor" : 						{
							"expression" : "themecolor.live_surface_bg"
						}
,
						"blinkcolor" : 						{
							"expression" : "themecolor.live_display_handle_two"
						}
,
						"outlinecolor" : 						{
							"expression" : "themecolor.live_surface_bg"
						}

					}

				}

			}
, 			{
				"box" : 				{
					"id" : "obj-11",
					"maxclass" : "newobj",
					"numinlets" : 2,
					"numoutlets" : 2,
					"outlettype" : [ "signal", "signal" ],
					"patching_rect" : [ 8.0, 64.0, 62.0, 22.0 ],
					"text" : "plugin~"
				}

			}
, 			{
				"box" : 				{
					"id" : "obj-10",
					"maxclass" : "newobj",
					"numinlets" : 2,
					"numoutlets" : 2,
					"outlettype" : [ "signal", "signal" ],
					"patching_rect" : [ 8.0, 112.0, 62.0, 22.0 ],
					"text" : "plugout~"
				}

			}
 ],
		"lines" : [ 			{
				"patchline" : 				{
					"destination" : [ "obj-10", 1 ],
					"source" : [ "obj-11", 1 ]
				}

			}
, 			{
				"patchline" : 				{
					"destination" : [ "obj-10", 0 ],
					"source" : [ "obj-11", 0 ]
				}

			}
, 			{
				"patchline" : 				{
					"destination" : [ "obj-42", 2 ],
					"order" : 1,
					"source" : [ "obj-12", 0 ]
				}

			}
, 			{
				"patchline" : 				{
					"destination" : [ "obj-6", 0 ],
					"order" : 0,
					"source" : [ "obj-12", 0 ]
				}

			}
, 			{
				"patchline" : 				{
					"destination" : [ "obj-12", 1 ],
					"source" : [ "obj-309", 0 ]
				}

			}
, 			{
				"patchline" : 				{
					"destination" : [ "obj-335", 0 ],
					"source" : [ "obj-326", 0 ]
				}

			}
, 			{
				"patchline" : 				{
					"destination" : [ "obj-336", 0 ],
					"source" : [ "obj-335", 0 ]
				}

			}
, 			{
				"patchline" : 				{
					"destination" : [ "obj-326", 0 ],
					"source" : [ "obj-337", 0 ]
				}

			}
, 			{
				"patchline" : 				{
					"destination" : [ "obj-357", 0 ],
					"source" : [ "obj-343", 0 ]
				}

			}
, 			{
				"patchline" : 				{
					"destination" : [ "obj-337", 1 ],
					"source" : [ "obj-357", 0 ]
				}

			}
, 			{
				"patchline" : 				{
					"destination" : [ "obj-337", 0 ],
					"source" : [ "obj-361", 0 ]
				}

			}
, 			{
				"patchline" : 				{
					"destination" : [ "obj-42", 0 ],
					"source" : [ "obj-376", 0 ]
				}

			}
, 			{
				"patchline" : 				{
					"destination" : [ "obj-12", 0 ],
					"source" : [ "obj-42", 4 ]
				}

			}
, 			{
				"patchline" : 				{
					"destination" : [ "obj-4", 0 ],
					"source" : [ "obj-80", 0 ]
				}

			}
, 			{
				"patchline" : 				{
					"destination" : [ "obj-80", 0 ],
					"source" : [ "obj-9", 1 ]
				}

			}
 ],
		"parameters" : 		{
			"obj-1" : [ "SCR", "SCR", 0 ],
			"obj-2" : [ "REC", "REC", 0 ],
			"obj-3" : [ "Codec", "Codec", 0 ],
			"obj-361" : [ "Folder Video", "Folder Video", 0 ],
			"obj-7" : [ "Folder Images", "Folder Images", 0 ],
			"inherited_shortname" : 1
		}
,
		"dependency_cache" : [ 			{
				"name" : "PX._chain.js",
				"bootpath" : "~/Documents/GitHub/px-stream/devices",
				"patcherrelativepath" : ".",
				"type" : "TEXT",
				"implicit" : 1
			}
, 			{
				"name" : "PX._chain.maxpat",
				"bootpath" : "~/Documents/GitHub/px-stream/devices",
				"patcherrelativepath" : ".",
				"type" : "JSON",
				"implicit" : 1
			}
, 			{
				"name" : "PX._channel.maxpat",
				"bootpath" : "~/Documents/GitHub/px-stream/devices",
				"patcherrelativepath" : ".",
				"type" : "JSON",
				"implicit" : 1
			}
, 			{
				"name" : "PX._legend.maxpat",
				"bootpath" : "~/Documents/GitHub/px-stream/devices",
				"patcherrelativepath" : ".",
				"type" : "JSON",
				"implicit" : 1
			}
 ],
		"autosave" : 0
	}

}
